<?xml version="1.0" encoding="UTF-8"?>
<svg width="9.10405229px" height="14.36px" viewBox="0 0 9.10405229 14.36" version="1.1" xmlns="http://www.w3.org/2000/svg" xmlns:xlink="http://www.w3.org/1999/xlink">

    <g id="WowCodes" stroke="none" stroke-width="1" fill="none" fill-rule="evenodd" transform="translate(-747.180000, -35.820000)">
        <path d="M755.157778,46.9106754 L755.157778,37.7753377 L748.306275,37.7753377 L748.306275,46.9106754 L755.157778,46.9106754 Z M753.046013,48.8660131 L753.046013,48.2246623 L750.418039,48.2246623 L750.418039,48.8660131 L753.046013,48.8660131 Z M754.328715,35.82 C754.672856,35.82 754.996135,35.9086411 755.298562,36.0859259 C755.600989,36.2632108 755.840842,36.5030631 756.018126,36.8054902 C756.195411,37.1079173 756.284052,37.4311965 756.284052,37.7753377 L756.284052,48.2246623 C756.284052,48.5688035 756.195411,48.8920827 756.018126,49.1945098 C755.840842,49.4969369 755.600989,49.7367892 755.298562,49.9140741 C754.996135,50.0913589 754.672856,50.18 754.328715,50.18 L749.135338,50.18 C748.791197,50.18 748.467917,50.0913589 748.16549,49.9140741 C747.863063,49.7367892 747.623211,49.4969369 747.445926,49.1945098 C747.268641,48.8920827 747.18,48.5688035 747.18,48.2246623 L747.18,37.7753377 C747.18,37.4311965 747.268641,37.1079173 747.445926,36.8054902 C747.623211,36.5030631 747.863063,36.2632108 748.16549,36.0859259 C748.467917,35.9086411 748.791197,35.82 749.135338,35.82 L754.328715,35.82 Z" id="phone" fill="#fb653f"></path>
    </g>
</svg>